<svg width="204" height="200" viewBox="0 0 204 200" fill="none" xmlns="http://www.w3.org/2000/svg">
<path d="M42.7752 34.4921C56.3652 26.9078 80.2129 13.4677 97.678 8.83202L97.7801 9.30288C98.266 9.08505 98.7568 8.86824 99.2524 8.65218C119.546 -0.194349 146.248 -0.86754 165.726 10.5929C195.426 28.0691 205.34 67.8379 201.045 99.868C194.954 145.293 177.824 175.997 134.156 192.273C111.268 200.803 80.5709 199.77 57.442 189.403C34.6469 179.186 21.653 167.937 9.46838 147.02C-2.38189 126.676 1.90691 101.294 8.363 79.0296C13.6688 57.3964 31.5761 40.6196 42.7752 34.4921Z" fill="url(#paint0_radial)"/>
<path d="M97.678 8.83202C80.2129 13.4677 56.3652 26.9078 42.7752 34.4921C31.5761 40.6196 13.6688 57.3964 8.363 79.0296C1.90691 101.294 -2.38189 126.676 9.46838 147.02C21.653 167.937 34.6468 179.186 57.442 189.403C80.5709 199.77 111.268 200.803 134.156 192.273C177.824 175.997 194.954 145.293 201.045 99.8681C205.34 67.8379 195.426 28.0691 165.726 10.5929C146.248 -0.86754 119.546 -0.194349 99.2524 8.65218C83.8747 15.3558 73.1637 22.7789 66.9321 39.4826C54.7361 72.1744 67.3358 112.18 90.6448 136.909C103.953 151.028 121.299 157.731 140.291 156.982C153.254 156.47 170.909 148.893 176.444 136.244C188.548 108.576 169.693 72.1535 150.621 52.7352C131.477 33.2442 102.204 18.3587 80.982 43.3087C67.7359 58.8817 59.3828 91.1476 82.2037 103.195C92.9767 108.882 111.818 106.97 118.3 95.5984C121.831 89.405 117.314 86.2681 113.524 81.9021" stroke="#551B07" stroke-width="3" stroke-linecap="round"/>
<defs>
<radialGradient id="paint0_radial" cx="0" cy="0" r="1" gradientUnits="userSpaceOnUse" gradientTransform="translate(102 100) rotate(90) scale(98 100)">
<stop stop-color="#F7C77F"/>
<stop offset="1" stop-color="#FFF6E9"/>
</radialGradient>
</defs>
</svg>
