<svg width="31" height="25" viewBox="0 0 31 25" fill="none" xmlns="http://www.w3.org/2000/svg">
<path d="M6.40613 0.687994C8.90213 0.687994 10.7901 1.71199 12.0701 3.75999C13.1581 5.488 13.7021 7.6 13.7021 10.096C13.7021 13.296 12.8701 16.176 11.2061 18.736C9.60613 21.296 7.14213 23.344 3.81413 24.88L2.95013 23.152C4.93413 22.32 6.63013 21.008 8.03813 19.216C9.51013 17.424 10.2461 15.6 10.2461 13.744C10.2461 12.976 10.1501 12.304 9.95813 11.728C8.93413 12.56 7.75013 12.976 6.40613 12.976C4.67813 12.976 3.20613 12.432 1.99013 11.344C0.838125 10.192 0.262125 8.688 0.262125 6.832C0.262125 5.10399 0.838125 3.664 1.99013 2.512C3.20613 1.296 4.67813 0.687994 6.40613 0.687994ZM22.7261 0.687994C25.2221 0.687994 27.1101 1.71199 28.3901 3.75999C29.4781 5.488 30.0221 7.6 30.0221 10.096C30.0221 13.296 29.1901 16.176 27.5261 18.736C25.9261 21.296 23.4621 23.344 20.1341 24.88L19.2701 23.152C21.2541 22.32 22.9501 21.008 24.3581 19.216C25.8301 17.424 26.5661 15.6 26.5661 13.744C26.5661 12.976 26.4701 12.304 26.2781 11.728C25.2541 12.56 24.0701 12.976 22.7261 12.976C20.9981 12.976 19.5261 12.432 18.3101 11.344C17.1581 10.192 16.5821 8.688 16.5821 6.832C16.5821 5.10399 17.1581 3.664 18.3101 2.512C19.5261 1.296 20.9981 0.687994 22.7261 0.687994Z" fill="#551B07"/>
</svg>
