<svg width="31" height="25" viewBox="0 0 31 25" fill="none" xmlns="http://www.w3.org/2000/svg">
<path d="M24.3335 24.88C21.8375 24.88 19.9495 23.856 18.6695 21.808C17.5815 20.08 17.0375 17.968 17.0375 15.472C17.0375 12.272 17.8375 9.392 19.4375 6.832C21.1015 4.272 23.5975 2.224 26.9255 0.687994L27.7895 2.41599C25.8055 3.248 24.0775 4.56 22.6055 6.352C21.1975 8.144 20.4935 9.968 20.4935 11.824C20.4935 12.592 20.5895 13.264 20.7815 13.84C21.8055 13.008 22.9895 12.592 24.3335 12.592C26.0615 12.592 27.5015 13.168 28.6535 14.32C29.8695 15.408 30.4775 16.88 30.4775 18.736C30.4775 20.464 29.8695 21.936 28.6535 23.152C27.5015 24.304 26.0615 24.88 24.3335 24.88ZM8.0135 24.88C5.5175 24.88 3.6295 23.856 2.3495 21.808C1.2615 20.08 0.7175 17.968 0.7175 15.472C0.7175 12.272 1.5175 9.392 3.1175 6.832C4.7815 4.272 7.2775 2.224 10.6055 0.687994L11.4695 2.41599C9.4855 3.248 7.7575 4.56 6.2855 6.352C4.8775 8.144 4.1735 9.968 4.1735 11.824C4.1735 12.592 4.2695 13.264 4.4615 13.84C5.4855 13.008 6.6695 12.592 8.0135 12.592C9.7415 12.592 11.1815 13.168 12.3335 14.32C13.5495 15.408 14.1575 16.88 14.1575 18.736C14.1575 20.464 13.5495 21.936 12.3335 23.152C11.1815 24.304 9.7415 24.88 8.0135 24.88Z" fill="#551B07"/>
</svg>
