<svg width="55" height="53" viewBox="0 0 55 53" fill="none" xmlns="http://www.w3.org/2000/svg">
<path d="M1.17487 22.4946C1.67796 18.488 2.29391 14.0364 4.25586 10.6561L4.42725 10.7039C5.60017 8.09331 8.56024 5.79777 10.8081 4.27355C14.9925 1.43614 20.6924 0.859385 25.6146 1.02624C35.5161 1.36188 45.0714 3.82384 51.1693 12.3467C55.1918 17.9689 53.9915 26.8638 53.1762 33.2738C52.4489 38.9921 49.8132 42.2842 45.8175 46.1278C42.8682 48.9649 38.3398 50.2688 34.4271 51.1921C22.6456 54.1817 9.125 48.3343 5.25577 42.487C2.60257 38.4045 1.42935 35.4122 1.17487 30.5227C1.04325 27.9935 0.857929 25.0187 1.17487 22.4946Z" fill="#F7C77F"/>
<path d="M4.25586 10.6561C2.29391 14.0364 1.67796 18.488 1.17487 22.4946C0.857929 25.0187 1.04325 27.9935 1.17487 30.5227C1.42935 35.4122 2.60257 38.4045 5.25577 42.487C9.125 48.3343 22.6456 54.1817 34.4271 51.1921C38.3398 50.2688 42.8682 48.9649 45.8175 46.1278C49.8132 42.2842 52.4489 38.9921 53.1762 33.2738C53.9915 26.8638 55.1918 17.9689 51.1693 12.3467C45.0714 3.82384 35.5161 1.36188 25.6146 1.02624C20.6924 0.859385 14.9925 1.43614 10.8081 4.27355C8.50313 5.8365 5.44928 8.21047 4.34134 10.9035C3.04422 14.0563 4.93452 18.7187 6.39285 21.4121C11.0498 30.0134 19.3068 33.6877 28.3797 35.0779C35.0728 36.1035 41.8947 32.0408 43.8552 25.2007C45.4801 19.5316 37.1565 13.5672 32.9733 11.5349C30.6035 10.3836 24.0898 8.37187 21.5116 10.0014C18.0031 12.219 20.4174 18.7134 23.0725 20.3748C25.5709 21.9381 29.9311 22.9878 32.7057 21.5023C33.5791 21.0347 33.3289 19.7643 33.2855 18.8865C33.2302 17.7677 31.6108 18.0746 30.8772 18.0746" stroke="#551B07" stroke-width="2" stroke-linecap="round"/>
</svg>
