<svg width="123" height="125" viewBox="0 0 123 125" fill="none" xmlns="http://www.w3.org/2000/svg">
<path d="M100.922 26.669C105.511 34.891 113.642 49.3188 116.447 59.8852L116.162 59.947C116.294 60.2409 116.425 60.5379 116.556 60.8377C121.908 73.1153 122.315 89.2703 115.381 101.054C104.808 119.023 80.7481 125.021 61.3699 122.422C33.8881 118.737 15.3119 108.374 5.465 81.9542C0.304108 68.1074 0.929253 49.5354 7.20116 35.5424C13.3826 21.7513 20.1879 13.8901 32.8431 6.51837C45.1511 -0.651042 60.5073 1.94368 73.9772 5.84961C87.0653 9.05965 97.2152 19.8935 100.922 26.669Z" fill="url(#paint0_radial)"/>
<path d="M116.852 59.8852C114.037 49.3188 105.877 34.891 101.273 26.669C97.5524 19.8935 87.3665 9.05965 74.232 5.84961C60.7145 1.94368 45.3039 -0.651046 32.9523 6.51836C20.2523 13.89 13.4229 21.7513 7.21953 35.5424C0.925401 49.5354 0.298032 68.1074 5.4772 81.9542C15.359 108.374 34.001 118.737 61.5801 122.422C81.027 125.021 105.172 119.023 115.783 101.054C122.741 89.2703 122.332 73.1154 116.961 60.8377C112.891 51.5342 108.384 45.054 98.2427 41.2839C78.3941 33.9053 54.105 41.5282 39.091 55.6301C30.5186 63.6818 26.4487 74.1762 26.9038 85.6663C27.2144 93.5085 31.8149 104.19 39.495 107.538C56.2934 114.862 78.4068 103.454 90.1965 91.9155C102.03 80.3333 111.068 62.6235 95.9197 49.7841C86.4647 41.7702 66.8747 36.7166 59.5601 50.5233C56.1072 57.0409 57.2685 68.4398 64.1724 72.3617C67.9327 74.4978 69.8372 71.7649 72.488 69.4723" stroke="#551B07" stroke-width="3" stroke-linecap="round"/>
<defs>
<radialGradient id="paint0_radial" cx="0" cy="0" r="1" gradientUnits="userSpaceOnUse" gradientTransform="translate(61.2901 62.5) rotate(180) scale(59.29 60.5)">
<stop offset="0.489583" stop-color="#F7C77F"/>
<stop offset="1" stop-color="#FFF6E9"/>
</radialGradient>
</defs>
</svg>
